PathFileType	4	(X/Y/Z)	C:\Users\86182\Documents\cortex\Trimmed_M4_L9.trc
DataRate	CameraRate	NumFrames	NumMarkers	Units	OrigDataRate	OrigDataStartFrame	OrigNumFrames
100.00	100.00	       70	2	mm	100.00	721	       901
Frame#	Time	gripper			box			
		X1	Y1	Z1	X2	Y2	Z2	

721	7.200	276.22250	151.23784	292.46771	277.13541	149.20247	157.01396	
722	7.210	276.22192	151.23801	292.46783	277.13675	149.20491	157.02058	
723	7.220	276.22012	151.23851	292.46826	277.13748	149.20793	157.02820	
724	7.230	276.21707	151.23936	292.46899	277.13766	149.21115	157.03580	
725	7.240	276.21301	151.24051	292.46997	277.13776	149.21385	157.04228	
726	7.250	276.20837	151.24182	292.47107	277.13815	149.21533	157.04688	
727	7.260	276.20380	151.24310	292.47214	277.13898	149.21541	157.04951	
728	7.270	276.19992	151.24419	292.47305	277.13983	149.21440	157.05067	
729	7.280	276.19717	151.24495	292.47369	277.14041	149.21272	157.05072	
730	7.290	276.19559	151.24541	292.47409	277.14072	149.21059	157.04962	
731	7.300	276.19495	151.24557	292.47424	277.14102	149.20825	157.04739	
732	7.310	276.19528	151.24548	292.47418	277.14130	149.20631	157.04427	
733	7.320	276.19675	151.24507	292.47382	277.14139	149.20531	157.04082	
734	7.330	276.19946	151.24431	292.47318	277.14139	149.20529	157.03766	
735	7.340	276.20309	151.24330	292.47232	277.14136	149.20602	157.03526	
736	7.350	276.20679	151.24225	292.47144	277.14139	149.20712	157.03375	
737	7.360	276.20978	151.24142	292.47073	277.14145	149.20819	157.03290	
738	7.370	276.21152	151.24094	292.47031	277.14160	149.20882	157.03220	
739	7.380	276.21194	151.24081	292.47021	277.14191	149.20882	157.03133	
740	7.390	276.21109	151.24104	292.47040	277.14233	149.20839	157.03053	
741	7.400	276.20920	151.24158	292.47089	277.14279	149.20796	157.03036	
742	7.410	276.20670	151.24228	292.47147	277.14328	149.20779	157.03104	
743	7.420	276.20416	151.24300	292.47208	277.14355	149.20779	157.03209	
744	7.430	276.20200	151.24361	292.47260	277.14340	149.20778	157.03268	
745	7.440	276.20007	151.24414	292.47305	277.14255	149.20767	157.03232	
746	7.450	276.19818	151.24467	292.47351	277.14105	149.20753	157.03116	
747	7.460	276.19638	151.24518	292.47394	277.13919	149.20738	157.02950	
748	7.470	276.19492	151.24559	292.47427	277.13712	149.20709	157.02719	
749	7.480	276.19385	151.24590	292.47452	277.13492	149.20651	157.02396	
750	7.490	276.19315	151.24609	292.47470	277.13269	149.20566	157.01987	
751	7.500	276.19281	151.24617	292.47479	277.13055	149.20464	157.01534	
752	7.510	276.19308	151.24611	292.47473	277.12885	149.20346	157.01103	
753	7.520	276.19409	151.24582	292.47449	277.12787	149.20212	157.00769	
754	7.530	276.19608	151.24527	292.47403	277.12790	149.20076	157.00603	
755	7.540	276.19894	151.24448	292.47336	277.12921	149.19957	157.00653	
756	7.550	276.20258	151.24345	292.47247	277.13187	149.19872	157.00917	
757	7.560	276.20703	151.24220	292.47144	277.13562	149.19824	157.01328	
758	7.570	276.21246	151.24069	292.47012	277.13959	149.19806	157.01778	
759	7.580	276.21875	151.23892	292.46863	277.14294	149.19801	157.02155	
760	7.590	276.22522	151.23708	292.46704	277.14511	149.19797	157.02374	
761	7.600	276.23083	151.23546	292.46570	277.14581	149.19791	157.02390	
762	7.610	276.23465	151.23434	292.46472	277.14505	149.19792	157.02199	
763	7.620	276.23621	151.23383	292.46426	277.14304	149.19810	157.01855	
764	7.630	276.23538	151.23396	292.46436	277.14026	149.19852	157.01453	
765	7.640	276.23221	151.23474	292.46497	277.13736	149.19919	157.01088	
766	7.650	276.22705	151.23610	292.46609	277.13483	149.20012	157.00830	
767	7.660	276.22052	151.23790	292.46762	277.13300	149.20119	157.00702	
768	7.670	276.21356	151.23990	292.46930	277.13205	149.20218	157.00690	
769	7.680	276.20724	151.24178	292.47092	277.13202	149.20288	157.00766	
770	7.690	276.20264	151.24316	292.47211	277.13281	149.20311	157.00888	
771	7.700	276.20047	151.24385	292.47272	277.13412	149.20280	157.00996	
772	7.710	276.20071	151.24382	292.47272	277.13544	149.20212	157.01048	
773	7.720	276.20276	151.24321	292.47217	277.13641	149.20128	157.01031	
774	7.730	276.20578	151.24228	292.47137	277.13672	149.20059	157.00960	
775	7.740	276.20886	151.24129	292.47052	277.13641	149.20018	157.00847	
776	7.750	276.21143	151.24040	292.46973	277.13559	149.20004	157.00699	
777	7.760	276.21335	151.23975	292.46915	277.13434	149.20004	157.00496	
778	7.770	276.21475	151.23930	292.46875	277.13284	149.20007	157.00241	
779	7.780	276.21579	151.23907	292.46857	277.13147	149.19998	156.99992	
780	7.790	276.21671	151.23897	292.46854	277.13052	149.19974	156.99831	
781	7.800	276.21759	151.23886	292.46848	277.13025	149.19942	156.99823	
782	7.810	276.21841	151.23872	292.46838	277.13043	149.19919	156.99973	
783	7.820	276.21902	151.23857	292.46826	277.13080	149.19913	157.00233	
784	7.830	276.21930	151.23840	292.46811	277.13101	149.19917	157.00536	
785	7.840	276.21936	151.23819	292.46790	277.13107	149.19908	157.00803	
786	7.850	276.21948	151.23787	292.46753	277.13107	149.19868	157.00981	
787	7.860	276.21994	151.23741	292.46704	277.13107	149.19812	157.01056	
788	7.870	276.22083	151.23688	292.46652	277.13135	149.19771	157.01047	
789	7.880	276.22211	151.23639	292.46606	277.13205	149.19772	157.01012	
790	7.890	276.22403	151.23596	292.46576	277.13318	149.19809	157.01007	
